<svg xmlns="http://www.w3.org/2000/svg" width="120" height="120" viewBox="0 0 24 24" fill="none">
  <rect width="24" height="24" rx="6" fill="#0ea5a6"/>
  <path d="M12 3v10" stroke="#021" stroke-width="1.2" stroke-linecap="round"/>
  <circle cx="12" cy="17.5" r="1.5" fill="#021"/>
</svg>
<svg xmlns="http://www.w3.org/2000/svg" width="30" height="42" viewBox="0 0 24 36" fill="none">
  <path d="M12 1C7 1 3 5.3 3 10.2c0 6.8 8.4 16 8.8 16.4.3.3.8.3 1.1 0 .4-.4 8.8-9.6 8.8-16.4C21 5.3 17 1 12 1z" fill="#2ecc71"/>
  <circle cx="12" cy="10.2" r="3.2" fill="#fff"/>
</svg>
<svg xmlns="http://www.w3.org/2000/svg" width="30" height="42" viewBox="0 0 24 36" fill="none">
  <path d="M12 1C7 1 3 5.3 3 10.2c0 6.8 8.4 16 8.8 16.4.3.3.8.3 1.1 0 .4-.4 8.8-9.6 8.8-16.4C21 5.3 17 1 12 1z" fill="#f1c40f"/>
  <circle cx="12" cy="10.2" r="3.2" fill="#fff"/>
</svg>
<svg xmlns="http://www.w3.org/2000/svg" width="30" height="42" viewBox="0 0 24 36" fill="none">
  <path d="M12 1C7 1 3 5.3 3 10.2c0 6.8 8.4 16 8.8 16.4.3.3.8.3 1.1 0 .4-.4 8.8-9.6 8.8-16.4C21 5.3 17 1 12 1z" fill="#ef4444"/>
  <circle cx="12" cy="10.2" r="3.2" fill="#fff"/>
</svg>